<mxfile host="65bd71144e">
    <diagram id="Sj48S8Lour3vdJFxLxyg" name="Page-1">
        <mxGraphModel dx="1481" dy="2126" grid="1" gridSize="10" guides="1" tooltips="1" connect="1" arrows="1" fold="1" page="1" pageScale="1" pageWidth="850" pageHeight="1100" background="none" math="0" shadow="0">
            <root>
                <mxCell id="0"/>
                <mxCell id="1" parent="0"/>
                <mxCell id="15" style="edgeStyle=none;html=1;exitX=1;exitY=0.5;exitDx=0;exitDy=0;strokeWidth=5;endArrow=classic;endFill=1;startArrow=none;startFill=0;entryX=0;entryY=0.5;entryDx=0;entryDy=0;" parent="1" source="66" target="9" edge="1">
                    <mxGeometry relative="1" as="geometry"/>
                </mxCell>
                <mxCell id="34" style="edgeStyle=none;html=1;exitX=0.25;exitY=1;exitDx=0;exitDy=0;strokeWidth=5;endArrow=none;endFill=0;" edge="1" parent="1" source="2" target="33">
                    <mxGeometry relative="1" as="geometry"/>
                </mxCell>
                <mxCell id="2" value="Movie" style="rounded=0;whiteSpace=wrap;html=1;fillColor=#008a00;fontColor=#ffffff;strokeColor=#005700;" parent="1" vertex="1">
                    <mxGeometry x="-50" y="680" width="120" height="60" as="geometry"/>
                </mxCell>
                <mxCell id="23" style="edgeStyle=none;html=1;exitX=0.5;exitY=1;exitDx=0;exitDy=0;entryX=0.5;entryY=0;entryDx=0;entryDy=0;endArrow=none;endFill=0;strokeWidth=5;" parent="1" source="3" target="2" edge="1">
                    <mxGeometry relative="1" as="geometry">
                        <mxPoint x="44.99999999999977" y="570" as="sourcePoint"/>
                    </mxGeometry>
                </mxCell>
                <mxCell id="3" value="Runtime" style="ellipse;whiteSpace=wrap;html=1;fontStyle=0;fillColor=#1ba1e2;fontColor=#ffffff;strokeColor=#006EAF;" parent="1" vertex="1">
                    <mxGeometry x="-30" y="460" width="120" height="80" as="geometry"/>
                </mxCell>
                <mxCell id="24" style="edgeStyle=none;html=1;exitX=1;exitY=0.5;exitDx=0;exitDy=0;entryX=0;entryY=0;entryDx=0;entryDy=0;endArrow=none;endFill=0;strokeWidth=1;" parent="1" source="4" target="2" edge="1">
                    <mxGeometry relative="1" as="geometry"/>
                </mxCell>
                <mxCell id="4" value="Viewer Rating" style="ellipse;whiteSpace=wrap;html=1;fillColor=#1ba1e2;fontColor=#ffffff;strokeColor=#006EAF;" parent="1" vertex="1">
                    <mxGeometry x="-220" y="605" width="120" height="80" as="geometry"/>
                </mxCell>
                <mxCell id="32" value="" style="edgeStyle=none;html=1;endArrow=none;endFill=0;strokeWidth=5;startArrow=none;startFill=0;" parent="1" source="5" target="2" edge="1">
                    <mxGeometry relative="1" as="geometry"/>
                </mxCell>
                <mxCell id="5" value="Release date" style="ellipse;whiteSpace=wrap;html=1;fontStyle=0;fillColor=#1ba1e2;fontColor=#ffffff;strokeColor=#006EAF;" parent="1" vertex="1">
                    <mxGeometry x="-60" y="840" width="120" height="80" as="geometry"/>
                </mxCell>
                <mxCell id="25" style="edgeStyle=none;html=1;exitX=1;exitY=0.5;exitDx=0;exitDy=0;entryX=0;entryY=1;entryDx=0;entryDy=0;endArrow=none;endFill=0;strokeWidth=1;" parent="1" source="6" target="2" edge="1">
                    <mxGeometry relative="1" as="geometry"/>
                </mxCell>
                <mxCell id="6" value="Critic Rating" style="ellipse;whiteSpace=wrap;html=1;fillColor=#1ba1e2;fontColor=#ffffff;strokeColor=#006EAF;" parent="1" vertex="1">
                    <mxGeometry x="-220" y="700" width="120" height="80" as="geometry"/>
                </mxCell>
                <mxCell id="136" style="edgeStyle=none;html=1;exitX=1;exitY=0.5;exitDx=0;exitDy=0;entryX=-0.026;entryY=0.404;entryDx=0;entryDy=0;entryPerimeter=0;startArrow=none;startFill=0;endArrow=none;endFill=0;strokeWidth=1;" edge="1" parent="1" source="9" target="68">
                    <mxGeometry relative="1" as="geometry"/>
                </mxCell>
                <mxCell id="9" value="Directed by" style="rhombus;whiteSpace=wrap;html=1;fillColor=#a20025;fontColor=#ffffff;strokeColor=#6F0000;rotation=-20;" parent="1" vertex="1">
                    <mxGeometry x="250" y="605" width="100" height="50" as="geometry"/>
                </mxCell>
                <mxCell id="59" style="edgeStyle=none;html=1;exitX=1;exitY=1;exitDx=0;exitDy=0;entryX=0;entryY=0;entryDx=0;entryDy=0;endArrow=none;endFill=0;strokeWidth=5;" edge="1" parent="1" source="17" target="58">
                    <mxGeometry relative="1" as="geometry"/>
                </mxCell>
                <mxCell id="17" value="Director" style="rounded=0;whiteSpace=wrap;html=1;fillColor=#008a00;fontColor=#ffffff;strokeColor=#005700;" parent="1" vertex="1">
                    <mxGeometry x="560" y="520" width="120" height="60" as="geometry"/>
                </mxCell>
                <mxCell id="19" style="edgeStyle=none;html=1;exitX=0.5;exitY=0;exitDx=0;exitDy=0;endArrow=none;endFill=0;strokeWidth=5;" parent="1" source="18" target="17" edge="1">
                    <mxGeometry relative="1" as="geometry"/>
                </mxCell>
                <mxCell id="18" value="First Name" style="ellipse;whiteSpace=wrap;html=1;fillColor=#1ba1e2;fontColor=#ffffff;strokeColor=#006EAF;" parent="1" vertex="1">
                    <mxGeometry x="560" y="680" width="120" height="80" as="geometry"/>
                </mxCell>
                <mxCell id="20" value="Comic Story" style="rounded=0;whiteSpace=wrap;html=1;fillColor=#008a00;fontColor=#ffffff;strokeColor=#005700;" parent="1" vertex="1">
                    <mxGeometry x="370" y="300" width="120" height="60" as="geometry"/>
                </mxCell>
                <mxCell id="22" style="edgeStyle=none;html=1;exitX=0.5;exitY=1;exitDx=0;exitDy=0;entryX=0.5;entryY=0;entryDx=0;entryDy=0;endArrow=none;endFill=0;strokeWidth=5;" parent="1" source="21" target="17" edge="1">
                    <mxGeometry relative="1" as="geometry"/>
                </mxCell>
                <mxCell id="21" value="Age" style="ellipse;whiteSpace=wrap;html=1;fillColor=#1ba1e2;fontColor=#ffffff;strokeColor=#006EAF;" parent="1" vertex="1">
                    <mxGeometry x="560" y="340" width="120" height="80" as="geometry"/>
                </mxCell>
                <mxCell id="29" style="edgeStyle=none;html=1;exitX=0.015;exitY=0.343;exitDx=0;exitDy=0;entryX=1;entryY=0;entryDx=0;entryDy=0;endArrow=none;endFill=0;strokeWidth=5;startArrow=none;startFill=0;exitPerimeter=0;" parent="1" source="69" target="2" edge="1">
                    <mxGeometry relative="1" as="geometry"/>
                </mxCell>
                <mxCell id="135" style="edgeStyle=none;html=1;exitX=1;exitY=0.5;exitDx=0;exitDy=0;entryX=0.016;entryY=0.497;entryDx=0;entryDy=0;entryPerimeter=0;startArrow=none;startFill=0;endArrow=none;endFill=0;strokeWidth=1;" edge="1" parent="1" source="130" target="72">
                    <mxGeometry relative="1" as="geometry">
                        <mxPoint x="285.0000000000002" y="502.5" as="sourcePoint"/>
                    </mxGeometry>
                </mxCell>
                <mxCell id="31" style="edgeStyle=none;html=1;exitX=0;exitY=0.5;exitDx=0;exitDy=0;entryX=1;entryY=0.5;entryDx=0;entryDy=0;endArrow=none;endFill=0;strokeWidth=5;" parent="1" source="30" target="17" edge="1">
                    <mxGeometry relative="1" as="geometry"/>
                </mxCell>
                <mxCell id="30" value="Last Name" style="ellipse;whiteSpace=wrap;html=1;fillColor=#1ba1e2;fontColor=#ffffff;strokeColor=#006EAF;" parent="1" vertex="1">
                    <mxGeometry x="780" y="510" width="120" height="80" as="geometry"/>
                </mxCell>
                <mxCell id="33" value="Title" style="ellipse;whiteSpace=wrap;html=1;fontStyle=4;fillColor=#1ba1e2;fontColor=#ffffff;strokeColor=#006EAF;" vertex="1" parent="1">
                    <mxGeometry x="-180" y="790" width="120" height="80" as="geometry"/>
                </mxCell>
                <mxCell id="36" style="edgeStyle=none;html=1;entryX=0.25;entryY=0;entryDx=0;entryDy=0;endArrow=none;endFill=0;strokeWidth=5;exitX=1;exitY=1;exitDx=0;exitDy=0;" edge="1" parent="1" source="35" target="2">
                    <mxGeometry relative="1" as="geometry">
                        <mxPoint x="-40" y="600" as="sourcePoint"/>
                    </mxGeometry>
                </mxCell>
                <mxCell id="35" value="Description" style="ellipse;whiteSpace=wrap;html=1;fontStyle=0;fillColor=#1ba1e2;fontColor=#ffffff;strokeColor=#006EAF;" vertex="1" parent="1">
                    <mxGeometry x="-150" y="510" width="120" height="80" as="geometry"/>
                </mxCell>
                <mxCell id="41" style="edgeStyle=none;html=1;exitX=0.5;exitY=1;exitDx=0;exitDy=0;entryX=0.25;entryY=0;entryDx=0;entryDy=0;endArrow=none;endFill=0;strokeWidth=5;startArrow=none;startFill=1;" edge="1" parent="1" source="81" target="20">
                    <mxGeometry relative="1" as="geometry">
                        <mxPoint x="350" y="140" as="sourcePoint"/>
                    </mxGeometry>
                </mxCell>
                <mxCell id="43" style="edgeStyle=none;html=1;exitX=0;exitY=1;exitDx=0;exitDy=0;entryX=1;entryY=0;entryDx=0;entryDy=0;endArrow=none;endFill=0;strokeWidth=5;" edge="1" parent="1" source="39" target="20">
                    <mxGeometry relative="1" as="geometry"/>
                </mxCell>
                <mxCell id="39" value="description" style="ellipse;whiteSpace=wrap;html=1;fillColor=#1ba1e2;fontColor=#ffffff;strokeColor=#006EAF;" vertex="1" parent="1">
                    <mxGeometry x="560" y="180" width="120" height="80" as="geometry"/>
                </mxCell>
                <mxCell id="42" style="edgeStyle=none;html=1;exitX=1;exitY=1;exitDx=0;exitDy=0;endArrow=none;endFill=0;strokeWidth=5;" edge="1" parent="1" source="40" target="20">
                    <mxGeometry relative="1" as="geometry"/>
                </mxCell>
                <mxCell id="40" value="Title" style="ellipse;whiteSpace=wrap;html=1;fillColor=#1ba1e2;fontColor=#ffffff;strokeColor=#006EAF;" vertex="1" parent="1">
                    <mxGeometry x="190" y="180" width="120" height="80" as="geometry"/>
                </mxCell>
                <mxCell id="45" style="edgeStyle=none;html=1;entryX=0.75;entryY=0;entryDx=0;entryDy=0;endArrow=none;endFill=0;strokeWidth=5;startArrow=none;startFill=1;" edge="1" parent="1" source="82" target="20">
                    <mxGeometry relative="1" as="geometry">
                        <mxPoint x="475" y="280" as="sourcePoint"/>
                    </mxGeometry>
                </mxCell>
                <mxCell id="46" value="Comic Illustrator" style="rounded=0;whiteSpace=wrap;html=1;fillColor=#008a00;fontColor=#ffffff;strokeColor=#005700;" vertex="1" parent="1">
                    <mxGeometry x="465" y="70" width="120" height="60" as="geometry"/>
                </mxCell>
                <mxCell id="47" value="Comic Writer" style="rounded=0;whiteSpace=wrap;html=1;fillColor=#008a00;fontColor=#ffffff;strokeColor=#005700;" vertex="1" parent="1">
                    <mxGeometry x="280" y="70" width="120" height="60" as="geometry"/>
                </mxCell>
                <mxCell id="50" style="edgeStyle=none;html=1;exitX=0.5;exitY=1;exitDx=0;exitDy=0;entryX=0.25;entryY=0;entryDx=0;entryDy=0;endArrow=none;endFill=0;strokeWidth=5;" edge="1" parent="1" source="48" target="47">
                    <mxGeometry relative="1" as="geometry"/>
                </mxCell>
                <mxCell id="48" value="First Name" style="ellipse;whiteSpace=wrap;html=1;fillColor=#1ba1e2;fontColor=#ffffff;strokeColor=#006EAF;" vertex="1" parent="1">
                    <mxGeometry x="120" y="-80" width="120" height="80" as="geometry"/>
                </mxCell>
                <mxCell id="51" style="edgeStyle=none;html=1;exitX=0.5;exitY=1;exitDx=0;exitDy=0;entryX=0.5;entryY=0;entryDx=0;entryDy=0;endArrow=none;endFill=0;strokeWidth=5;" edge="1" parent="1" source="49" target="46">
                    <mxGeometry relative="1" as="geometry"/>
                </mxCell>
                <mxCell id="49" value="First Name" style="ellipse;whiteSpace=wrap;html=1;fillColor=#1ba1e2;fontColor=#ffffff;strokeColor=#006EAF;" vertex="1" parent="1">
                    <mxGeometry x="475" y="-80" width="120" height="80" as="geometry"/>
                </mxCell>
                <mxCell id="53" style="edgeStyle=none;html=1;exitX=0.5;exitY=1;exitDx=0;exitDy=0;entryX=0.5;entryY=0;entryDx=0;entryDy=0;endArrow=none;endFill=0;strokeWidth=5;" edge="1" parent="1" source="52" target="47">
                    <mxGeometry relative="1" as="geometry"/>
                </mxCell>
                <mxCell id="52" value="Last Name" style="ellipse;whiteSpace=wrap;html=1;fillColor=#1ba1e2;fontColor=#ffffff;strokeColor=#006EAF;" vertex="1" parent="1">
                    <mxGeometry x="280" y="-80" width="120" height="80" as="geometry"/>
                </mxCell>
                <mxCell id="55" style="edgeStyle=none;html=1;exitX=0.5;exitY=1;exitDx=0;exitDy=0;endArrow=none;endFill=0;strokeWidth=5;entryX=0.75;entryY=0;entryDx=0;entryDy=0;" edge="1" parent="1" source="54" target="46">
                    <mxGeometry relative="1" as="geometry">
                        <mxPoint x="690" y="80" as="targetPoint"/>
                    </mxGeometry>
                </mxCell>
                <mxCell id="54" value="Last Name" style="ellipse;whiteSpace=wrap;html=1;fillColor=#1ba1e2;fontColor=#ffffff;strokeColor=#006EAF;" vertex="1" parent="1">
                    <mxGeometry x="620" y="-80" width="120" height="80" as="geometry"/>
                </mxCell>
                <mxCell id="57" style="edgeStyle=none;html=1;exitX=0;exitY=0.5;exitDx=0;exitDy=0;entryX=1;entryY=1;entryDx=0;entryDy=0;endArrow=none;endFill=0;strokeWidth=5;" edge="1" parent="1" source="56" target="2">
                    <mxGeometry relative="1" as="geometry"/>
                </mxCell>
                <mxCell id="56" value="ID" style="ellipse;whiteSpace=wrap;html=1;fillColor=#0050ef;fontColor=#ffffff;strokeColor=#001DBC;" vertex="1" parent="1">
                    <mxGeometry x="170" y="750" width="100" height="70" as="geometry"/>
                </mxCell>
                <mxCell id="58" value="ID" style="ellipse;whiteSpace=wrap;html=1;fillColor=#0050ef;fontColor=#ffffff;strokeColor=#001DBC;" vertex="1" parent="1">
                    <mxGeometry x="720" y="620" width="100" height="70" as="geometry"/>
                </mxCell>
                <mxCell id="61" style="edgeStyle=none;html=1;exitX=0.5;exitY=0;exitDx=0;exitDy=0;entryX=0.75;entryY=1;entryDx=0;entryDy=0;endArrow=none;endFill=0;strokeWidth=5;" edge="1" parent="1" source="60" target="20">
                    <mxGeometry relative="1" as="geometry"/>
                </mxCell>
                <mxCell id="60" value="ID" style="ellipse;whiteSpace=wrap;html=1;fillColor=#0050ef;fontColor=#ffffff;strokeColor=#001DBC;" vertex="1" parent="1">
                    <mxGeometry x="440" y="400" width="100" height="70" as="geometry"/>
                </mxCell>
                <mxCell id="63" style="edgeStyle=none;html=1;exitX=0;exitY=0.5;exitDx=0;exitDy=0;entryX=1;entryY=0.5;entryDx=0;entryDy=0;endArrow=none;endFill=0;strokeWidth=5;" edge="1" parent="1" source="62" target="46">
                    <mxGeometry relative="1" as="geometry"/>
                </mxCell>
                <mxCell id="62" value="ID" style="ellipse;whiteSpace=wrap;html=1;fillColor=#0050ef;fontColor=#ffffff;strokeColor=#001DBC;" vertex="1" parent="1">
                    <mxGeometry x="670" y="65" width="100" height="70" as="geometry"/>
                </mxCell>
                <mxCell id="65" style="edgeStyle=none;html=1;exitX=1;exitY=0.5;exitDx=0;exitDy=0;endArrow=none;endFill=0;strokeWidth=5;" edge="1" parent="1" source="64" target="47">
                    <mxGeometry relative="1" as="geometry"/>
                </mxCell>
                <mxCell id="64" value="ID" style="ellipse;whiteSpace=wrap;html=1;fillColor=#0050ef;fontColor=#ffffff;strokeColor=#001DBC;" vertex="1" parent="1">
                    <mxGeometry x="90" y="65" width="100" height="70" as="geometry"/>
                </mxCell>
                <mxCell id="66" value="exactly one" style="text;html=1;align=center;verticalAlign=middle;resizable=0;points=[];autosize=1;strokeColor=none;fillColor=none;rotation=-20;" vertex="1" parent="1">
                    <mxGeometry x="100" y="680" width="80" height="20" as="geometry"/>
                </mxCell>
                <mxCell id="67" value="" style="edgeStyle=none;html=1;exitX=1;exitY=0.5;exitDx=0;exitDy=0;strokeWidth=5;endArrow=none;endFill=0;" edge="1" parent="1" source="2" target="66">
                    <mxGeometry relative="1" as="geometry">
                        <mxPoint x="90" y="710" as="sourcePoint"/>
                        <mxPoint x="185" y="710" as="targetPoint"/>
                        <Array as="points"/>
                    </mxGeometry>
                </mxCell>
                <mxCell id="71" value="" style="edgeStyle=none;html=1;endArrow=none;endFill=0;strokeWidth=5;entryX=0;entryY=0.5;entryDx=0;entryDy=0;" edge="1" parent="1" source="69" target="130">
                    <mxGeometry relative="1" as="geometry">
                        <mxPoint x="235.00000000000023" y="527.5" as="targetPoint"/>
                    </mxGeometry>
                </mxCell>
                <mxCell id="69" value="1 or more" style="text;html=1;align=center;verticalAlign=middle;resizable=0;points=[];autosize=1;strokeColor=none;fillColor=none;rotation=-40;" vertex="1" parent="1">
                    <mxGeometry x="100" y="620" width="70" height="20" as="geometry"/>
                </mxCell>
                <mxCell id="72" value="0 or more" style="text;html=1;align=center;verticalAlign=middle;resizable=0;points=[];autosize=1;strokeColor=none;fillColor=none;rotation=-45;" vertex="1" parent="1">
                    <mxGeometry x="320" y="425" width="70" height="20" as="geometry"/>
                </mxCell>
                <mxCell id="73" value="" style="edgeStyle=none;html=1;exitX=0.5;exitY=1;exitDx=0;exitDy=0;endArrow=none;endFill=0;strokeWidth=1;" edge="1" parent="1" source="20" target="72">
                    <mxGeometry relative="1" as="geometry">
                        <mxPoint x="430" y="360" as="sourcePoint"/>
                        <mxPoint x="380" y="420" as="targetPoint"/>
                    </mxGeometry>
                </mxCell>
                <mxCell id="87" style="edgeStyle=none;html=1;exitX=0;exitY=0;exitDx=0;exitDy=0;entryX=0.569;entryY=1.231;entryDx=0;entryDy=0;entryPerimeter=0;startArrow=none;startFill=0;endArrow=none;endFill=0;strokeWidth=5;" edge="1" parent="1" source="75" target="80">
                    <mxGeometry relative="1" as="geometry"/>
                </mxCell>
                <mxCell id="75" value="Writen by" style="rhombus;whiteSpace=wrap;html=1;fillColor=#a20025;fontColor=#ffffff;strokeColor=#6F0000;" vertex="1" parent="1">
                    <mxGeometry x="330" y="170" width="90" height="50" as="geometry"/>
                </mxCell>
                <mxCell id="77" value="Illustrated by" style="rhombus;whiteSpace=wrap;html=1;fillColor=#a20025;fontColor=#ffffff;strokeColor=#6F0000;" vertex="1" parent="1">
                    <mxGeometry x="445" y="170" width="90" height="50" as="geometry"/>
                </mxCell>
                <mxCell id="78" value="" style="edgeStyle=none;html=1;exitX=0.412;exitY=0.998;exitDx=0;exitDy=0;entryX=0.75;entryY=0;entryDx=0;entryDy=0;endArrow=none;endFill=0;strokeWidth=5;startArrow=none;exitPerimeter=0;" edge="1" parent="1" source="79" target="77">
                    <mxGeometry relative="1" as="geometry">
                        <mxPoint x="525" y="130" as="sourcePoint"/>
                        <mxPoint x="460" y="300" as="targetPoint"/>
                    </mxGeometry>
                </mxCell>
                <mxCell id="82" value="Exactly 1" style="text;html=1;align=center;verticalAlign=middle;resizable=0;points=[];autosize=1;strokeColor=none;fillColor=none;" vertex="1" parent="1">
                    <mxGeometry x="445" y="260" width="60" height="20" as="geometry"/>
                </mxCell>
                <mxCell id="83" value="" style="edgeStyle=none;html=1;exitX=0.5;exitY=1;exitDx=0;exitDy=0;endArrow=none;endFill=0;strokeWidth=5;startArrow=classic;startFill=1;" edge="1" parent="1" source="77" target="82">
                    <mxGeometry relative="1" as="geometry">
                        <mxPoint x="490" y="220" as="sourcePoint"/>
                        <mxPoint x="460" y="300" as="targetPoint"/>
                    </mxGeometry>
                </mxCell>
                <mxCell id="81" value="Exactly 1" style="text;html=1;align=center;verticalAlign=middle;resizable=0;points=[];autosize=1;strokeColor=none;fillColor=none;" vertex="1" parent="1">
                    <mxGeometry x="365" y="260" width="60" height="20" as="geometry"/>
                </mxCell>
                <mxCell id="84" value="" style="edgeStyle=none;html=1;exitX=0.5;exitY=1;exitDx=0;exitDy=0;entryX=0.371;entryY=-0.106;entryDx=0;entryDy=0;endArrow=none;endFill=0;strokeWidth=5;startArrow=classic;startFill=1;entryPerimeter=0;" edge="1" parent="1" source="75" target="81">
                    <mxGeometry relative="1" as="geometry">
                        <mxPoint x="375" y="220" as="sourcePoint"/>
                        <mxPoint x="400" y="300" as="targetPoint"/>
                    </mxGeometry>
                </mxCell>
                <mxCell id="79" value="1 or more" style="text;html=1;align=center;verticalAlign=middle;resizable=0;points=[];autosize=1;strokeColor=none;fillColor=none;" vertex="1" parent="1">
                    <mxGeometry x="480" y="150" width="70" height="20" as="geometry"/>
                </mxCell>
                <mxCell id="85" value="" style="edgeStyle=none;html=1;exitX=0.5;exitY=1;exitDx=0;exitDy=0;endArrow=none;endFill=0;strokeWidth=5;" edge="1" parent="1" source="46" target="79">
                    <mxGeometry relative="1" as="geometry">
                        <mxPoint x="525" y="130" as="sourcePoint"/>
                        <mxPoint x="505" y="178.33333333333348" as="targetPoint"/>
                    </mxGeometry>
                </mxCell>
                <mxCell id="80" value="1 or more" style="text;html=1;align=center;verticalAlign=middle;resizable=0;points=[];autosize=1;strokeColor=none;fillColor=none;" vertex="1" parent="1">
                    <mxGeometry x="310" y="140" width="70" height="20" as="geometry"/>
                </mxCell>
                <mxCell id="86" value="" style="edgeStyle=none;html=1;exitX=0.5;exitY=1;exitDx=0;exitDy=0;entryX=0.475;entryY=0.081;entryDx=0;entryDy=0;endArrow=none;endFill=0;strokeWidth=5;entryPerimeter=0;" edge="1" parent="1" source="47" target="80">
                    <mxGeometry relative="1" as="geometry">
                        <mxPoint x="340" y="130" as="sourcePoint"/>
                        <mxPoint x="360" y="178.33333333333348" as="targetPoint"/>
                    </mxGeometry>
                </mxCell>
                <mxCell id="68" value="0 or more" style="text;html=1;align=center;verticalAlign=middle;resizable=0;points=[];autosize=1;strokeColor=none;fillColor=none;rotation=-15;" vertex="1" parent="1">
                    <mxGeometry x="410" y="580" width="70" height="20" as="geometry"/>
                </mxCell>
                <mxCell id="89" value="" style="edgeStyle=none;html=1;exitX=0;exitY=0.5;exitDx=0;exitDy=0;endArrow=none;endFill=0;strokeWidth=1;" edge="1" parent="1" source="17" target="68">
                    <mxGeometry relative="1" as="geometry">
                        <mxPoint x="560" y="550" as="sourcePoint"/>
                        <mxPoint x="475" y="550" as="targetPoint"/>
                    </mxGeometry>
                </mxCell>
                <mxCell id="120" value="one to many" style="text;html=1;align=center;verticalAlign=middle;resizable=0;points=[];autosize=1;strokeColor=none;fillColor=none;rotation=-20;" vertex="1" parent="1">
                    <mxGeometry x="280" y="655" width="80" height="20" as="geometry"/>
                </mxCell>
                <mxCell id="121" value="many to many" style="text;html=1;align=center;verticalAlign=middle;resizable=0;points=[];autosize=1;strokeColor=none;fillColor=none;rotation=-40;" vertex="1" parent="1">
                    <mxGeometry x="240" y="550" width="90" height="20" as="geometry"/>
                </mxCell>
                <mxCell id="122" value="one to many" style="text;html=1;align=center;verticalAlign=middle;resizable=0;points=[];autosize=1;strokeColor=none;fillColor=none;rotation=-75;" vertex="1" parent="1">
                    <mxGeometry x="395" y="190" width="80" height="20" as="geometry"/>
                </mxCell>
                <mxCell id="124" style="edgeStyle=none;html=1;exitX=0;exitY=0;exitDx=0;exitDy=0;startArrow=none;startFill=0;endArrow=none;endFill=0;strokeWidth=5;entryX=0.75;entryY=1;entryDx=0;entryDy=0;" edge="1" parent="1" source="123" target="2">
                    <mxGeometry relative="1" as="geometry">
                        <mxPoint x="40" y="750" as="targetPoint"/>
                        <mxPoint x="94.28207093124388" y="840.5077057814242" as="sourcePoint"/>
                    </mxGeometry>
                </mxCell>
                <mxCell id="123" value="Director ID" style="ellipse;whiteSpace=wrap;html=1;fillColor=#0050ef;fontColor=#ffffff;strokeColor=#001DBC;" vertex="1" parent="1">
                    <mxGeometry x="90" y="830" width="100" height="70" as="geometry"/>
                </mxCell>
                <mxCell id="127" style="edgeStyle=none;html=1;exitX=0;exitY=1;exitDx=0;exitDy=0;entryX=1;entryY=0.5;entryDx=0;entryDy=0;startArrow=none;startFill=0;endArrow=none;endFill=0;strokeWidth=5;" edge="1" parent="1" source="126" target="20">
                    <mxGeometry relative="1" as="geometry"/>
                </mxCell>
                <mxCell id="126" value="Illustrator ID" style="ellipse;whiteSpace=wrap;html=1;fillColor=#0050ef;fontColor=#ffffff;strokeColor=#001DBC;" vertex="1" parent="1">
                    <mxGeometry x="535" y="270" width="90" height="60" as="geometry"/>
                </mxCell>
                <mxCell id="129" style="edgeStyle=none;html=1;exitX=1;exitY=1;exitDx=0;exitDy=0;entryX=0;entryY=0.5;entryDx=0;entryDy=0;startArrow=none;startFill=0;endArrow=none;endFill=0;strokeWidth=5;" edge="1" parent="1" source="128" target="20">
                    <mxGeometry relative="1" as="geometry"/>
                </mxCell>
                <mxCell id="128" value="Writer ID" style="ellipse;whiteSpace=wrap;html=1;fillColor=#0050ef;fontColor=#ffffff;strokeColor=#001DBC;" vertex="1" parent="1">
                    <mxGeometry x="240" y="270" width="90" height="60" as="geometry"/>
                </mxCell>
                <mxCell id="130" value="comic inspirations" style="rounded=0;whiteSpace=wrap;html=1;fillColor=#a20025;fontColor=#ffffff;strokeColor=#6F0000;rotation=-40;" vertex="1" parent="1">
                    <mxGeometry x="190" y="500" width="120" height="60" as="geometry"/>
                </mxCell>
                <mxCell id="138" style="edgeStyle=none;html=1;exitX=0.5;exitY=1;exitDx=0;exitDy=0;entryX=0.75;entryY=0;entryDx=0;entryDy=0;startArrow=none;startFill=0;endArrow=none;endFill=0;strokeWidth=1;" edge="1" parent="1" source="131" target="130">
                    <mxGeometry relative="1" as="geometry"/>
                </mxCell>
                <mxCell id="131" value="Movie ID" style="ellipse;whiteSpace=wrap;html=1;fillColor=#0050ef;fontColor=#ffffff;strokeColor=#001DBC;" vertex="1" parent="1">
                    <mxGeometry x="180" y="390" width="100" height="70" as="geometry"/>
                </mxCell>
                <mxCell id="137" style="edgeStyle=none;html=1;exitX=1;exitY=1;exitDx=0;exitDy=0;entryX=0.25;entryY=0;entryDx=0;entryDy=0;startArrow=none;startFill=0;endArrow=none;endFill=0;strokeWidth=1;" edge="1" parent="1" source="132" target="130">
                    <mxGeometry relative="1" as="geometry"/>
                </mxCell>
                <mxCell id="132" value="Comic Story ID" style="ellipse;whiteSpace=wrap;html=1;fillColor=#0050ef;fontColor=#ffffff;strokeColor=#001DBC;" vertex="1" parent="1">
                    <mxGeometry x="100" y="445" width="100" height="70" as="geometry"/>
                </mxCell>
            </root>
        </mxGraphModel>
    </diagram>
</mxfile>